<svg width="92" height="49" viewBox="0 0 92 49" fill="none" xmlns="http://www.w3.org/2000/svg">
<path d="M6.33203 0.494141H18.6953C19.2422 0.513672 19.6914 0.71875 20.043 1.10938C20.4141 1.5 20.5996 1.96875 20.5996 2.51562C20.502 3.6875 19.8672 4.32227 18.6953 4.41992H7.32812C6.58594 4.45898 5.9707 4.74219 5.48242 5.26953C4.99414 5.79688 4.63281 6.40234 4.39844 7.08594C4.18359 7.75 4.07617 8.43359 4.07617 9.13672C4.07617 9.83984 4.18359 10.5332 4.39844 11.2168C4.63281 11.8809 4.99414 12.4766 5.48242 13.0039C5.9707 13.5312 6.58594 13.8145 7.32812 13.8535H16.2344C16.5859 13.834 16.7715 13.6387 16.791 13.2676V11.5684C16.7715 11.1777 16.5859 10.9824 16.2344 10.9824H8.73438C8.1875 10.9824 7.71875 10.7969 7.32812 10.4258C6.95703 10.0352 6.77148 9.56641 6.77148 9.01953C6.77148 8.47266 6.95703 8.00391 7.32812 7.61328C7.71875 7.24219 8.1875 7.05664 8.73438 7.05664H18.7539C19.3008 7.05664 19.7695 7.24219 20.1602 7.61328C20.5117 7.98438 20.6973 8.43359 20.7168 8.96094V9.01953V15.875C20.6973 16.4023 20.5117 16.8418 20.1602 17.1934C19.7891 17.5645 19.3398 17.7598 18.8125 17.7793H6.33203C4.96484 17.7012 3.83203 17.1836 2.93359 16.2266C2.05469 15.25 1.41992 14.1465 1.0293 12.916C0.658203 11.6855 0.472656 10.4258 0.472656 9.13672C0.472656 7.84766 0.667969 6.58789 1.05859 5.35742C1.44922 4.12695 2.08398 3.0332 2.96289 2.07617C3.8418 1.09961 4.96484 0.572266 6.33203 0.494141ZM40.7266 16.2266V9.16602C40.7266 8.67773 40.4727 8.42383 39.9648 8.4043H29.7109C29.3398 8.42383 29.0176 8.58984 28.7441 8.90234C28.4707 9.19531 28.2656 9.54688 28.1289 9.95703C28.0117 10.3477 27.9531 10.748 27.9531 11.1582C27.9531 11.5488 28.0117 11.9492 28.1289 12.3594C28.2656 12.75 28.4707 13.1016 28.7441 13.4141C29.0176 13.707 29.3398 13.8535 29.7109 13.8535H37.2109C37.7578 13.8535 38.2168 14.0488 38.5879 14.4395C38.9785 14.8105 39.1738 15.2695 39.1738 15.8164C39.1738 16.3633 38.9785 16.8223 38.5879 17.1934C38.2168 17.584 37.7578 17.7793 37.2109 17.7793H29.8281C28.4609 17.7598 27.3281 17.3789 26.4297 16.6367C25.5508 15.875 24.916 15.0254 24.5254 14.0879C24.1543 13.1309 23.9688 12.1445 23.9688 11.1289C23.9688 10.1523 24.1641 9.19531 24.5547 8.25781C24.9453 7.30078 25.5801 6.45117 26.459 5.70898C27.3379 4.94727 28.6367 4.53711 30.3555 4.47852H42.6602C43.207 4.47852 43.6758 4.66406 44.0664 5.03516C44.457 5.38672 44.6621 5.83594 44.6816 6.38281V16.2266C44.6816 16.7734 44.4766 17.2324 44.0664 17.6035C43.6758 17.9551 43.207 18.1309 42.6602 18.1309C41.4883 18.0332 40.8438 17.3984 40.7266 16.2266ZM54.6719 4.03906C55.3555 4.03906 56.0195 4.15625 56.6641 4.39062C57.3281 4.625 57.9629 4.9668 58.5684 5.41602C58.666 5.51367 58.7734 5.61133 58.8906 5.70898C58.9883 5.61133 59.0957 5.51367 59.2129 5.41602C59.8184 4.9668 60.4434 4.625 61.0879 4.39062C61.752 4.15625 62.416 4.03906 63.0801 4.03906C63.7637 4.03906 64.4277 4.15625 65.0723 4.39062C65.7363 4.625 66.3613 4.97656 66.9473 5.44531C67.5527 5.89453 68.0801 6.5 68.5293 7.26172C68.998 8.02344 69.2324 8.93164 69.2324 9.98633V16.2266C69.1152 17.3984 68.4707 18.0332 67.2988 18.1309C66.752 18.1309 66.2734 17.9551 65.8633 17.6035C65.4727 17.2324 65.2773 16.7734 65.2773 16.2266V10.2207C65.2773 9.75195 65.1895 9.36133 65.0137 9.04883C64.8379 8.7168 64.6426 8.46289 64.4277 8.28711C64.2129 8.0918 63.9883 7.95508 63.7539 7.87695C63.5195 7.7793 63.2852 7.73047 63.0508 7.73047C62.8164 7.73047 62.582 7.7793 62.3477 7.87695C62.1328 7.95508 61.918 8.0918 61.7031 8.28711C61.4883 8.46289 61.293 8.7168 61.1172 9.04883C60.9414 9.36133 60.8438 9.75195 60.8242 10.2207V16.2266C60.707 17.3984 60.0625 18.0332 58.8906 18.1309C58.3438 18.1309 57.8652 17.9551 57.4551 17.6035C57.0645 17.2324 56.8691 16.7734 56.8691 16.2266V10.2207C56.8691 9.75195 56.7812 9.36133 56.6055 9.04883C56.4297 8.7168 56.2344 8.46289 56.0195 8.28711C55.8047 8.0918 55.5801 7.95508 55.3457 7.87695C55.1113 7.7793 54.877 7.73047 54.6426 7.73047C54.4082 7.73047 54.1738 7.7793 53.9395 7.87695C53.7246 7.95508 53.5098 8.0918 53.2949 8.28711C53.0801 8.46289 52.8848 8.7168 52.709 9.04883C52.5332 9.36133 52.4355 9.75195 52.416 10.2207V16.2266C52.3184 17.3984 51.6836 18.0332 50.5117 18.1309C49.9648 18.1309 49.4863 17.9551 49.0762 17.6035C48.6855 17.2324 48.4902 16.7734 48.4902 16.2266V9.98633C48.5293 8.93164 48.7734 8.02344 49.2227 7.26172C49.6719 6.5 50.1992 5.89453 50.8047 5.44531C51.4102 4.97656 52.0352 4.625 52.6797 4.39062C53.3438 4.15625 54.0078 4.03906 54.6719 4.03906ZM78.8711 17.7793C77.1523 17.7207 75.8535 17.3203 74.9746 16.5781C74.0957 15.8164 73.4609 14.9668 73.0703 14.0293C72.6797 13.0723 72.4844 12.1055 72.4844 11.1289C72.4844 10.1133 72.6699 9.13672 73.041 8.19922C73.4316 7.24219 74.0664 6.39258 74.9453 5.65039C75.8438 4.88867 76.9766 4.49805 78.3438 4.47852H89.4766C90.0234 4.47852 90.4824 4.66406 90.8535 5.03516C91.2441 5.38672 91.4395 5.81641 91.4395 6.32422C91.4395 6.85156 91.2441 7.30078 90.8535 7.67188C90.4824 8.02344 90.0234 8.19922 89.4766 8.19922H78.5195C78.0898 8.19922 77.709 8.3457 77.377 8.63867C77.0645 8.93164 76.8301 9.3125 76.6738 9.78125C76.5371 10.25 76.4688 10.709 76.4688 11.1582C76.4688 11.6465 76.5371 12.125 76.6738 12.5938C76.8301 13.0625 77.0645 13.4434 77.377 13.7363C77.709 14.0098 78.0898 14.1562 78.5195 14.1758H89.4766C90.0234 14.1758 90.4824 14.3516 90.8535 14.7031C91.2441 15.0547 91.4395 15.4746 91.4395 15.9629C91.4395 16.4707 91.2441 16.9004 90.8535 17.252C90.4824 17.6035 90.0234 17.7793 89.4766 17.7793H78.8711ZM91.0879 11.0703C91.0879 11.4414 90.9219 11.7637 90.5898 12.0371C90.2969 12.291 89.9258 12.418 89.4766 12.418H79.8965C79.4473 12.418 79.0664 12.291 78.7539 12.0371C78.4414 11.7637 78.2852 11.4414 78.2852 11.0703C78.2852 10.7188 78.4414 10.4062 78.7539 10.1328C79.0664 9.87891 79.4473 9.75195 79.8965 9.75195H89.4766C89.9258 9.75195 90.3066 9.88867 90.6191 10.1621C90.9316 10.416 91.0879 10.7188 91.0879 11.0703ZM6.33203 30.4941H18.6953C19.2422 30.5137 19.6914 30.7188 20.043 31.1094C20.4141 31.5 20.5996 31.9688 20.5996 32.5156C20.502 33.6875 19.8672 34.3223 18.6953 34.4199H7.32812C6.58594 34.459 5.9707 34.7422 5.48242 35.2695C4.99414 35.7969 4.63281 36.4023 4.39844 37.0859C4.18359 37.75 4.07617 38.4336 4.07617 39.1367C4.07617 39.8398 4.18359 40.5332 4.39844 41.2168C4.63281 41.8809 4.99414 42.4766 5.48242 43.0039C5.9707 43.5312 6.58594 43.8145 7.32812 43.8535H16.2344C16.5859 43.834 16.7715 43.6387 16.791 43.2676V41.5684C16.7715 41.1777 16.5859 40.9824 16.2344 40.9824H8.73438C8.1875 40.9824 7.71875 40.7969 7.32812 40.4258C6.95703 40.0352 6.77148 39.5664 6.77148 39.0195C6.77148 38.4727 6.95703 38.0039 7.32812 37.6133C7.71875 37.2422 8.1875 37.0566 8.73438 37.0566H18.7539C19.3008 37.0566 19.7695 37.2422 20.1602 37.6133C20.5117 37.9844 20.6973 38.4336 20.7168 38.9609V39.0195V45.875C20.6973 46.4023 20.5117 46.8418 20.1602 47.1934C19.7891 47.5645 19.3398 47.7598 18.8125 47.7793H6.33203C4.96484 47.7012 3.83203 47.1836 2.93359 46.2266C2.05469 45.25 1.41992 44.1465 1.0293 42.916C0.658203 41.6855 0.472656 40.4258 0.472656 39.1367C0.472656 37.8477 0.667969 36.5879 1.05859 35.3574C1.44922 34.127 2.08398 33.0332 2.96289 32.0762C3.8418 31.0996 4.96484 30.5723 6.33203 30.4941ZM30.3555 47.7793C28.6367 47.7207 27.3379 47.3203 26.459 46.5781C25.5801 45.8164 24.9453 44.9668 24.5547 44.0293C24.1641 43.0723 23.9688 42.1055 23.9688 41.1289C23.9688 40.1133 24.1543 39.1367 24.5254 38.1992C24.916 37.2422 25.5508 36.3926 26.4297 35.6504C27.3281 34.8887 28.4609 34.498 29.8281 34.4785H40.9609C41.5078 34.4785 41.9668 34.6641 42.3379 35.0352C42.7285 35.3867 42.9238 35.8164 42.9238 36.3242C42.9238 36.8516 42.7285 37.3008 42.3379 37.6719C41.9668 38.0234 41.5078 38.1992 40.9609 38.1992H30.0039C29.5742 38.1992 29.1934 38.3457 28.8613 38.6387C28.5488 38.9316 28.3145 39.3125 28.1582 39.7812C28.0215 40.25 27.9531 40.709 27.9531 41.1582C27.9531 41.6465 28.0215 42.125 28.1582 42.5938C28.3145 43.0625 28.5488 43.4434 28.8613 43.7363C29.1934 44.0098 29.5742 44.1562 30.0039 44.1758H40.9609C41.5078 44.1758 41.9668 44.3516 42.3379 44.7031C42.7285 45.0547 42.9238 45.4746 42.9238 45.9629C42.9238 46.4707 42.7285 46.9004 42.3379 47.252C41.9668 47.6035 41.5078 47.7793 40.9609 47.7793H30.3555ZM42.5723 41.0703C42.5723 41.4414 42.4062 41.7637 42.0742 42.0371C41.7812 42.291 41.4102 42.418 40.9609 42.418H31.3809C30.9316 42.418 30.5508 42.291 30.2383 42.0371C29.9258 41.7637 29.7695 41.4414 29.7695 41.0703C29.7695 40.7188 29.9258 40.4062 30.2383 40.1328C30.5508 39.8789 30.9316 39.752 31.3809 39.752H40.9609C41.4102 39.752 41.791 39.8887 42.1035 40.1621C42.416 40.416 42.5723 40.7188 42.5723 41.0703ZM52.2988 47.7793C50.5801 47.7207 49.2812 47.3203 48.4023 46.5781C47.5234 45.8164 46.8887 44.9668 46.498 44.0293C46.1074 43.0723 45.9121 42.1055 45.9121 41.1289C45.9121 40.1133 46.0977 39.1367 46.4688 38.1992C46.8594 37.2422 47.4941 36.3926 48.373 35.6504C49.2715 34.8887 50.4043 34.498 51.7715 34.4785H62.9043C63.4512 34.4785 63.9102 34.6641 64.2812 35.0352C64.6719 35.3867 64.8672 35.8164 64.8672 36.3242C64.8672 36.8516 64.6719 37.3008 64.2812 37.6719C63.9102 38.0234 63.4512 38.1992 62.9043 38.1992H51.9473C51.5176 38.1992 51.1367 38.3457 50.8047 38.6387C50.4922 38.9316 50.2578 39.3125 50.1016 39.7812C49.9648 40.25 49.8965 40.709 49.8965 41.1582C49.8965 41.6465 49.9648 42.125 50.1016 42.5938C50.2578 43.0625 50.4922 43.4434 50.8047 43.7363C51.1367 44.0098 51.5176 44.1562 51.9473 44.1758H62.9043C63.4512 44.1758 63.9102 44.3516 64.2812 44.7031C64.6719 45.0547 64.8672 45.4746 64.8672 45.9629C64.8672 46.4707 64.6719 46.9004 64.2812 47.252C63.9102 47.6035 63.4512 47.7793 62.9043 47.7793H52.2988ZM64.5156 41.0703C64.5156 41.4414 64.3496 41.7637 64.0176 42.0371C63.7246 42.291 63.3535 42.418 62.9043 42.418H53.3242C52.875 42.418 52.4941 42.291 52.1816 42.0371C51.8691 41.7637 51.7129 41.4414 51.7129 41.0703C51.7129 40.7188 51.8691 40.4062 52.1816 40.1328C52.4941 39.8789 52.875 39.752 53.3242 39.752H62.9043C63.3535 39.752 63.7344 39.8887 64.0469 40.1621C64.3594 40.416 64.5156 40.7188 64.5156 41.0703ZM70.2578 30.0254C70.7852 30.0449 71.2344 30.2402 71.6055 30.6113C71.9766 30.9629 72.1719 31.4023 72.1914 31.9297V46.2852C72.0742 47.457 71.4297 48.0918 70.2578 48.1895C69.7109 48.1895 69.2324 48.0137 68.8223 47.6621C68.4316 47.291 68.2363 46.832 68.2363 46.2852V31.9297C68.2559 31.3828 68.4609 30.9336 68.8516 30.582C69.2422 30.2109 69.7109 30.0254 70.2578 30.0254ZM73.9785 38.1992C74.5449 37.2812 75.6289 36.6074 77.2305 36.1777L84.7598 34.1562C85.2871 34 85.7852 34.0488 86.2539 34.3027C86.7422 34.5371 87.0645 34.918 87.2207 35.4453C87.3965 35.9531 87.3574 36.4512 87.1035 36.9395C86.8691 37.4082 86.4883 37.7305 85.9609 37.9062L77.9336 39.9863C77.3672 40.2012 77.0938 40.5723 77.1133 41.0996C77.0938 41.627 77.3672 41.998 77.9336 42.2129L85.9609 44.293C86.4883 44.4688 86.8691 44.8008 87.1035 45.2891C87.3574 45.7578 87.3965 46.2461 87.2207 46.7539C87.0645 47.2812 86.7422 47.6621 86.2539 47.8965C85.7852 48.1504 85.2871 48.1992 84.7598 48.043L77.2305 46.0215C75.6094 45.5723 74.5156 44.8887 73.9492 43.9707C73.4023 43.0527 73.1289 42.0957 73.1289 41.0996C73.1289 40.1035 73.4121 39.1367 73.9785 38.1992Z" fill="white"/>
</svg>
