<svg width="31" height="31" viewBox="0 0 31 31" fill="none" xmlns="http://www.w3.org/2000/svg">
<g clip-path="url(#clip0_459_1207)">
<path d="M25.6699 0.0625H6.16992C3.27043 0.0625 0.919922 2.413 0.919922 5.3125V24.8125C0.919922 27.712 3.27043 30.0625 6.16992 30.0625H25.6699C28.5694 30.0625 30.9199 27.712 30.9199 24.8125V5.3125C30.9199 2.413 28.5694 0.0625 25.6699 0.0625Z" fill="#007FB5"/>
<path d="M9.36758 11.0977H5.13477V26.4352H9.36758V11.0977Z" fill="white"/>
<path d="M23.5129 11.0965C20.391 9.90584 18.1316 11.9215 17.166 13.0465V11.0965H12.9473V26.434H17.166V18.3433C17.142 17.3179 17.5167 16.3231 18.2113 15.5683C18.4096 15.3349 18.6539 15.145 18.9289 15.0103C19.204 14.8756 19.5038 14.7991 19.8098 14.7855C20.1519 14.779 20.4919 14.8416 20.8093 14.9697C21.1266 15.0977 21.4149 15.2886 21.6566 15.5308C22.1809 16.0787 22.4674 16.8117 22.4535 17.5699V26.434H27.216V16.9371C27.216 16.9371 27.7457 12.6808 23.5129 11.0965Z" fill="white"/>
<path d="M7.24727 8.97891C8.70737 8.97891 9.89102 7.79526 9.89102 6.33516C9.89102 4.87505 8.70737 3.69141 7.24727 3.69141C5.78716 3.69141 4.60352 4.87505 4.60352 6.33516C4.60352 7.79526 5.78716 8.97891 7.24727 8.97891Z" fill="white"/>
</g>
<defs>
<clipPath id="clip0_459_1207">
<rect width="30" height="30" fill="white" transform="translate(0.919922 0.0625)"/>
</clipPath>
</defs>
</svg>
