<svg width="31" height="31" viewBox="0 0 31 31" fill="none" xmlns="http://www.w3.org/2000/svg">
<path d="M15.9191 2.26172C12.4428 2.26172 12.0069 2.27645 10.6417 2.33875C9.27928 2.40094 8.34881 2.61728 7.53459 2.93373C6.69288 3.26084 5.97906 3.69851 5.26747 4.4101C4.55588 5.12168 4.11821 5.83551 3.7911 6.67722C3.47465 7.49139 3.25831 8.42186 3.19612 9.78427C3.13382 11.1495 3.11914 11.5854 3.11914 15.0617C3.11914 18.5379 3.13382 18.9738 3.19612 20.3391C3.25831 21.7015 3.47465 22.632 3.7911 23.4461C4.11821 24.2878 4.55588 25.0017 5.26747 25.7133C5.97906 26.4249 6.69288 26.8626 7.53459 27.1897C8.34881 27.5061 9.27928 27.7225 10.6417 27.7846C12.0069 27.8469 12.4428 27.8616 15.9191 27.8616C19.3954 27.8616 19.8312 27.8469 21.1965 27.7846C22.5589 27.7225 23.4894 27.5061 24.3036 27.1897C25.1453 26.8626 25.8591 26.4249 26.5707 25.7133C27.2823 25.0017 27.72 24.2878 28.0471 23.4461C28.3635 22.632 28.5799 21.7015 28.642 20.3391C28.7043 18.9738 28.7191 18.5379 28.7191 15.0617C28.7191 11.5854 28.7043 11.1495 28.642 9.78427C28.5799 8.42186 28.3635 7.49139 28.0471 6.67722C27.72 5.83551 27.2823 5.12168 26.5707 4.4101C25.8591 3.69851 25.1453 3.26084 24.3036 2.93373C23.4894 2.61728 22.5589 2.40094 21.1965 2.33875C19.8312 2.27645 19.3954 2.26172 15.9191 2.26172ZM15.9191 4.56806C19.3368 4.56806 19.7417 4.58107 21.0914 4.64265C22.3394 4.69961 23.0171 4.90813 23.4681 5.08337C24.0656 5.31557 24.492 5.59299 24.9399 6.04088C25.3878 6.48876 25.6652 6.91521 25.8974 7.51263C26.0727 7.96366 26.2812 8.64141 26.3381 9.88939C26.3997 11.2391 26.4128 11.6439 26.4128 15.0617C26.4128 18.4794 26.3997 18.8843 26.3381 20.234C26.2812 21.4819 26.0727 22.1597 25.8974 22.6107C25.6652 23.2082 25.3878 23.6346 24.9399 24.0825C24.492 24.5304 24.0656 24.8078 23.4681 25.04C23.0171 25.2153 22.3394 25.4238 21.0914 25.4807C19.7419 25.5423 19.3371 25.5553 15.9191 25.5553C12.5011 25.5553 12.0964 25.5423 10.7468 25.4807C9.49883 25.4238 8.82108 25.2153 8.37005 25.04C7.77258 24.8078 7.34619 24.5304 6.89825 24.0825C6.45036 23.6346 6.17294 23.2082 5.9408 22.6107C5.7655 22.1597 5.55698 21.4819 5.50002 20.234C5.43844 18.8843 5.42543 18.4794 5.42543 15.0617C5.42543 11.6439 5.43844 11.2391 5.50002 9.88939C5.55698 8.64141 5.7655 7.96366 5.9408 7.51263C6.17294 6.91521 6.45036 6.48876 6.89825 6.04088C7.34619 5.59299 7.77258 5.31557 8.37005 5.08337C8.82108 4.90813 9.49883 4.69961 10.7468 4.64265C12.0965 4.58107 12.5014 4.56806 15.9191 4.56806Z" fill="#D9D9D9"/>
<path d="M15.9187 19.3279C13.5622 19.3279 11.652 17.4176 11.652 15.0613C11.652 12.7048 13.5622 10.7946 15.9187 10.7946C18.2751 10.7946 20.1853 12.7048 20.1853 15.0613C20.1853 17.4176 18.2751 19.3279 15.9187 19.3279ZM15.9187 8.48828C12.2885 8.48828 9.3457 11.4311 9.3457 15.0613C9.3457 18.6914 12.2885 21.6342 15.9187 21.6342C19.5488 21.6342 22.4916 18.6914 22.4916 15.0613C22.4916 11.4311 19.5488 8.48828 15.9187 8.48828Z" fill="#D9D9D9"/>
<path d="M24.2868 8.22933C24.2868 9.07765 23.5991 9.7653 22.7508 9.7653C21.9026 9.7653 21.2148 9.07765 21.2148 8.22933C21.2148 7.38101 21.9026 6.69336 22.7508 6.69336C23.5991 6.69336 24.2868 7.38101 24.2868 8.22933Z" fill="#D9D9D9"/>
</svg>
