<svg width="33" height="33" viewBox="0 0 33 33" fill="none" xmlns="http://www.w3.org/2000/svg">
<g clip-path="url(#clip0_459_1205)">
<path d="M32.9139 6.1395C31.7369 6.6625 30.4729 7.0155 29.1439 7.1725C30.4989 6.3605 31.5399 5.0745 32.0309 3.5425C30.7619 4.2935 29.3579 4.8415 27.8629 5.1345C26.6649 3.8595 24.9589 3.0625 23.0699 3.0625C19.4449 3.0625 16.5079 6.0005 16.5079 9.6255C16.5079 10.1395 16.5649 10.6415 16.6769 11.1215C11.2219 10.8475 6.38587 8.2345 3.14788 4.2635C2.58388 5.2335 2.25987 6.3605 2.25987 7.5635C2.25987 9.8415 3.41887 11.8495 5.17887 13.0275C4.10387 12.9925 3.09188 12.6985 2.20687 12.2065C2.20587 12.2335 2.20587 12.2625 2.20587 12.2885C2.20587 15.4695 4.46788 18.1225 7.47088 18.7255C6.92088 18.8745 6.34088 18.9555 5.74188 18.9555C5.31788 18.9555 4.90788 18.9145 4.50787 18.8385C5.34188 21.4445 7.76687 23.3425 10.6379 23.3965C8.39287 25.1565 5.56287 26.2075 2.48787 26.2075C1.95788 26.2075 1.43488 26.1765 0.921875 26.1155C3.82588 27.9755 7.27588 29.0625 10.9829 29.0625C23.0549 29.0625 29.6579 19.0615 29.6579 10.3875C29.6579 10.1035 29.6499 9.8195 29.6379 9.5375C30.9209 8.6125 32.0329 7.4575 32.9139 6.1395Z" fill="#55ACEE"/>
</g>
<defs>
<clipPath id="clip0_459_1205">
<rect width="32" height="32" fill="white" transform="translate(0.919922 0.0625)"/>
</clipPath>
</defs>
</svg>
